<svg version="1.2" xmlns="http://www.w3.org/2000/svg" viewBox="0 0 459 599" width="459" height="599"><style>.a{fill:#f2f2f2}.b{fill:#e6e6e6}.c{fill:#3f3d56}.d{fill:#6c63ff}.e{fill:#2f2e41}.f{fill:#ffb6b6}.g{fill:#ccc}</style><path class="a" d="m157.7 69.8h278.6c3 0.1 5.9 0.6 8.7 1.8 2.7 1.1 5.2 2.8 7.3 4.9 2.2 2.1 3.8 4.6 5 7.4 1.1 2.7 1.7 5.7 1.7 8.6v158.7c0 2.9-0.6 5.9-1.7 8.6-1.2 2.8-2.8 5.3-5 7.4-2.1 2.1-4.6 3.8-7.3 4.9-2.8 1.2-5.7 1.7-8.7 1.7h-278.6c-3 0-5.9-0.5-8.7-1.7-2.7-1.1-5.2-2.8-7.3-4.9-2.2-2.1-3.8-4.6-5-7.4-1.1-2.7-1.7-5.7-1.7-8.6v-158.7c0-2.9 0.6-5.9 1.7-8.6 1.2-2.8 2.8-5.3 5-7.4 2.1-2.1 4.6-3.8 7.3-4.9 2.8-1.2 5.7-1.7 8.7-1.8zm-20.7 181.4c0 2.7 0.5 5.4 1.6 7.9 1 2.5 2.5 4.8 4.5 6.7 1.9 1.9 4.2 3.4 6.7 4.5 2.5 1 5.2 1.5 7.9 1.5h278.6c2.7 0 5.4-0.5 7.9-1.5 2.5-1.1 4.8-2.6 6.7-4.5 2-1.9 3.5-4.2 4.5-6.7 1.1-2.5 1.6-5.2 1.6-7.9v-23.7c0-20.4-4-40.7-11.9-59.6-7.8-18.8-19.2-36-33.7-50.5-14.5-14.4-31.6-25.9-50.5-33.7-18.9-7.8-39.1-11.9-59.6-11.9h-143.6c-2.7 0-5.4 0.6-7.9 1.6-2.5 1.1-4.8 2.6-6.7 4.5-2 1.9-3.5 4.2-4.5 6.7-1.1 2.5-1.6 5.2-1.6 7.9z"/><path fill-rule="evenodd" class="b" d="m409.3 155.1v2h-121.9v-2z"/><path fill-rule="evenodd" class="b" d="m409.1 176.3v2h-196.6v-2z"/><path fill-rule="evenodd" class="b" d="m286 147.8c4.4 0 8 3.6 8 8 0 4.5-3.6 8-8 8-4.4 0-8-3.5-8-8 0-4.4 3.6-8 8-8z"/><path fill-rule="evenodd" class="b" d="m410 147.8c4.4 0 8 3.6 8 8 0 4.5-3.6 8-8 8-4.4 0-8-3.5-8-8 0-4.4 3.6-8 8-8z"/><path fill-rule="evenodd" class="b" d="m409.3 197.1v2h-121.9v-2z"/><path fill-rule="evenodd" class="b" d="m286 189.8c4.4 0 8 3.6 8 8 0 4.5-3.6 8-8 8-4.4 0-8-3.5-8-8 0-4.4 3.6-8 8-8z"/><path fill-rule="evenodd" class="b" d="m410 189.8c4.4 0 8 3.6 8 8 0 4.5-3.6 8-8 8-4.4 0-8-3.5-8-8 0-4.4 3.6-8 8-8z"/><path fill-rule="evenodd" class="b" d="m409.3 218.1v2h-121.9v-2z"/><path fill-rule="evenodd" class="b" d="m286 210.8c4.4 0 8 3.6 8 8 0 4.5-3.6 8-8 8-4.4 0-8-3.5-8-8 0-4.4 3.6-8 8-8z"/><path fill-rule="evenodd" class="b" d="m410 210.8c4.4 0 8 3.6 8 8 0 4.5-3.6 8-8 8-4.4 0-8-3.5-8-8 0-4.4 3.6-8 8-8z"/><path fill-rule="evenodd" class="b" d="m409 168.8c4.4 0 8 3.6 8 8 0 4.5-3.6 8-8 8-4.4 0-8-3.5-8-8 0-4.4 3.6-8 8-8z"/><path fill-rule="evenodd" class="b" d="m210.5 168.8c4.5 0 8 3.6 8 8 0 4.4-3.5 8-8 8-4.4 0-8-3.6-8-8 0-4.4 3.6-8 8-8z"/><path fill-rule="evenodd" class="b" d="m409.1 239.3v2h-196.6v-2z"/><path fill-rule="evenodd" class="b" d="m409 231.8c4.4 0 8 3.6 8 8 0 4.5-3.6 8-8 8-4.4 0-8-3.5-8-8 0-4.4 3.6-8 8-8z"/><path fill-rule="evenodd" class="b" d="m210.5 231.8c4.5 0 8 3.6 8 8 0 4.4-3.5 8-8 8-4.4 0-8-3.6-8-8 0-4.4 3.6-8 8-8z"/><path fill-rule="evenodd" class="c" d="m203.4 89.5h-35.7c-4.1 0-7.5 3.3-7.5 7.5v35.7c0 4.1 3.4 7.4 7.5 7.4h35.7c4.1 0 7.4-3.3 7.4-7.4v-35.7c0-4.2-3.3-7.5-7.4-7.5z"/><path class="d" d="m181.8 95.8h-7.8q-1.5 0-2.9 0.6-1.3 0.6-2.4 1.6-1 1-1.6 2.4-0.6 1.4-0.6 2.9v23.1q0 1.5 0.6 2.8 0.6 1.4 1.6 2.4 1.1 1.1 2.4 1.7 1.4 0.5 2.9 0.5h23.1q1.5 0 2.8-0.5 1.4-0.6 2.5-1.7 1-1 1.6-2.4 0.5-1.3 0.5-2.8v-7.9c0-2.9-0.6-5.9-1.7-8.7-1.1-2.7-2.8-5.2-4.9-7.3-2.1-2.1-4.6-3.8-7.4-5-2.8-1.1-5.7-1.7-8.7-1.7z"/><path class="c" d="m187 88.3q0.3 0.3 0.5 0.7 0.2 0.4 0.2 0.8 0 0.4-0.2 0.8-0.2 0.4-0.5 0.7 0 0.1-0.1 0.1 0 0.1-0.1 0.1-0.1 0.1-0.1 0.1-0.1 0-0.2 0.1v5.1h-2v-5.1q0-0.1-0.1-0.1-0.1 0-0.1-0.1-0.1 0-0.2-0.1 0 0-0.1-0.1c-0.4-0.4-0.6-0.9-0.6-1.5 0-0.5 0.2-1.1 0.6-1.5 0.4-0.4 1-0.6 1.5-0.6 0.6 0 1.1 0.2 1.5 0.6z"/><path class="c" d="m182 88.3q0.3 0.3 0.5 0.7 0.2 0.4 0.2 0.8 0 0.4-0.2 0.8-0.2 0.4-0.5 0.7 0 0.1-0.1 0.1 0 0.1-0.1 0.1-0.1 0.1-0.1 0.1-0.1 0-0.2 0.1v5.1h-2v-5.1q0-0.1-0.1-0.1-0.1 0-0.1-0.1-0.1 0-0.2-0.1 0 0-0.1-0.1c-0.4-0.4-0.6-0.9-0.6-1.5 0-0.5 0.2-1.1 0.6-1.5 0.4-0.4 1-0.6 1.5-0.6 0.6 0 1.1 0.2 1.5 0.6z"/><path class="c" d="m177 88.3q0.3 0.3 0.5 0.7 0.2 0.4 0.2 0.8 0 0.4-0.2 0.8-0.2 0.4-0.5 0.7 0 0.1-0.1 0.1 0 0.1-0.1 0.1-0.1 0.1-0.1 0.1-0.1 0-0.2 0.1v5.1h-2v-5.1q0-0.1-0.1-0.1-0.1 0-0.1-0.1-0.1 0-0.2-0.1 0 0-0.1-0.1c-0.4-0.4-0.6-0.9-0.6-1.5 0-0.5 0.2-1.1 0.6-1.5 0.4-0.4 1-0.6 1.5-0.6 0.6 0 1.1 0.2 1.5 0.6z"/><path class="c" d="m184.5 137.8v-5.1h2v5.1q0.1 0 0.2 0.1 0 0 0.1 0.1 0.1 0 0.1 0.1 0.1 0 0.1 0.1c0.6 0.6 0.8 1.5 0.5 2.3-0.3 0.8-1.1 1.3-2 1.3-0.8 0-1.6-0.5-1.9-1.3-0.4-0.8-0.2-1.7 0.4-2.3q0.1-0.1 0.1-0.1 0.1-0.1 0.2-0.1 0-0.1 0.1-0.1 0.1-0.1 0.1-0.1z"/><path class="c" d="m189.5 137.8v-5.1h2v5.1q0.1 0 0.2 0.1 0 0 0.1 0.1 0.1 0 0.1 0.1 0.1 0 0.1 0.1c0.6 0.6 0.8 1.5 0.5 2.3-0.3 0.8-1.1 1.3-2 1.3-0.8 0-1.6-0.5-1.9-1.3-0.4-0.8-0.2-1.7 0.4-2.3q0.1-0.1 0.1-0.1 0.1-0.1 0.2-0.1 0-0.1 0.1-0.1 0.1-0.1 0.1-0.1z"/><path class="c" d="m194.5 137.8v-5.1h2v5.1q0.1 0 0.2 0.1 0 0 0.1 0.1 0.1 0 0.1 0.1 0.1 0 0.1 0.1c0.6 0.6 0.8 1.5 0.5 2.3-0.3 0.8-1.1 1.3-2 1.3-0.8 0-1.6-0.5-1.9-1.3-0.4-0.8-0.2-1.7 0.4-2.3q0.1-0.1 0.1-0.1 0.1-0.1 0.2-0.1 0-0.1 0.1-0.1 0.1-0.1 0.1-0.1z"/><path class="c" d="m162.6 106.7c-0.6 0.6-1.5 0.8-2.3 0.5-0.8-0.3-1.3-1.1-1.3-2 0-0.8 0.5-1.6 1.3-1.9 0.8-0.4 1.7-0.2 2.3 0.4q0.1 0.1 0.1 0.2 0.1 0 0.1 0.1 0.1 0 0.1 0.1 0 0.1 0.1 0.1h5.1v2h-5.1q-0.1 0.1-0.1 0.2 0 0-0.1 0.1 0 0.1-0.1 0.1 0 0.1-0.1 0.1z"/><path class="c" d="m162.6 108.7q0.1 0.1 0.1 0.2 0.1 0 0.1 0.1 0.1 0 0.1 0.1 0 0.1 0.1 0.1h5.1v2h-5.1q-0.1 0.1-0.1 0.2 0 0-0.1 0.1 0 0.1-0.1 0.1 0 0.1-0.1 0.1c-0.6 0.6-1.5 0.8-2.3 0.5-0.8-0.3-1.3-1.1-1.3-2 0-0.8 0.5-1.6 1.3-1.9 0.8-0.4 1.7-0.2 2.3 0.4z"/><path class="c" d="m162.6 113.7q0.1 0.1 0.1 0.2 0.1 0 0.1 0.1 0.1 0 0.1 0.1 0 0.1 0.1 0.1h5.1v2h-5.1q-0.1 0.1-0.1 0.2 0 0-0.1 0.1 0 0.1-0.1 0.1 0 0.1-0.1 0.1c-0.6 0.6-1.5 0.8-2.3 0.5-0.8-0.3-1.3-1.1-1.3-2 0-0.8 0.5-1.6 1.3-1.9 0.8-0.4 1.7-0.2 2.3 0.4z"/><path class="c" d="m162.6 118.7q0.1 0.1 0.1 0.2 0.1 0 0.1 0.1 0.1 0 0.1 0.1 0 0.1 0.1 0.1h5.1v2h-5.1q-0.1 0.1-0.1 0.2 0 0-0.1 0.1 0 0.1-0.1 0.1 0 0.1-0.1 0.1c-0.6 0.6-1.5 0.8-2.3 0.5-0.8-0.3-1.3-1.1-1.3-2 0-0.8 0.5-1.6 1.3-1.9 0.8-0.4 1.7-0.2 2.3 0.4z"/><path class="c" d="m162.6 123.7q0.1 0.1 0.1 0.2 0.1 0 0.1 0.1 0.1 0 0.1 0.1 0 0.1 0.1 0.1h5.1v2h-5.1q-0.1 0.1-0.1 0.2 0 0-0.1 0.1 0 0.1-0.1 0.1 0 0.1-0.1 0.1c-0.6 0.6-1.5 0.8-2.3 0.5-0.8-0.3-1.3-1.1-1.3-2 0-0.8 0.5-1.6 1.3-1.9 0.8-0.4 1.7-0.2 2.3 0.4z"/><path class="c" d="m208.4 123.7c0.7-0.6 1.6-0.8 2.4-0.4 0.8 0.3 1.3 1.1 1.3 1.9 0 0.9-0.5 1.7-1.3 2-0.8 0.3-1.7 0.1-2.4-0.5q0 0-0.1-0.1 0 0 0-0.1-0.1-0.1-0.1-0.1-0.1-0.1-0.1-0.2h-5.1v-2h5.1q0 0 0.1-0.1 0-0.1 0.1-0.1 0-0.1 0-0.1 0.1-0.1 0.1-0.2z"/><path class="c" d="m208.4 118.7c0.7-0.6 1.6-0.8 2.4-0.4 0.8 0.3 1.3 1.1 1.3 1.9 0 0.9-0.5 1.7-1.3 2-0.8 0.3-1.7 0.1-2.4-0.5q0 0-0.1-0.1 0 0 0-0.1-0.1-0.1-0.1-0.1-0.1-0.1-0.1-0.2h-5.1v-2h5.1q0 0 0.1-0.1 0-0.1 0.1-0.1 0-0.1 0-0.1 0.1-0.1 0.1-0.2z"/><path class="e" d="m29.6 105.5l25.4 117-4.5 31.3c-11.2 10.7-1.6 63.1 6.9 73.6 0 0 19-45.4 47.1-45.7 7.8-0.1 15.6 0.1 22.4 0.6q1.8 0.1 3.6 0.3 1.8 0.2 3.7 0.5 1.8 0.3 3.6 0.7 1.8 0.3 3.5 0.7c26 7 22.7-2 22.7-2l-21-162.8-15.8-16.2-12.6-13.1-5.8-14.2-39.5-3.4-6.4 14.8-13.6 2.1-9.8 1.4c-1.6 0.2-3.1 0.8-4.5 1.7-1.4 0.8-2.6 2-3.6 3.3-0.9 1.4-1.5 2.9-1.8 4.5-0.4 1.6-0.3 3.3 0 4.9z"/><path fill-rule="evenodd" class="d" d="m49.3 89.7l15.3 17.5 4.8 1.2 1.2 5.6 33.6 38.3 16.1-34.2 5.1-2.7-1.4-5.2 3.2-6.7-3.8-6.1-5-5-3.8-2-5.8-14.2-39.5-3.4-6.4 14.9-6.5-1.3-7.1 3.3z"/><path class="f" d="m183.1 305.7l-9.4-28.6-17.1 3.1 11.1 29.9c-1.4 3.5-0.7 7.5 1.9 10.4 2.6 2.8 6.5 3.9 10.2 2.9 3.6-1.1 6.4-4.1 7.1-7.8 0.7-3.8-0.8-7.6-3.8-9.9z"/><path fill-rule="evenodd" class="e" d="m135.2 117.7l7.8 2 19.8 90.7 4.3 4.2-1.7 3.9 1.7 6.9 13.1 65.2-28.9 11.5-29.5-134.5 13.4-49.9z"/><path fill-rule="evenodd" class="f" d="m90.5 582.4h13.3l6.3-51.4h-19.6v51.4z"/><path class="e" d="m90 596.3h41v-0.5c0-2.1-0.4-4.2-1.2-6.1-0.8-2-2-3.7-3.5-5.2-1.5-1.5-3.2-2.7-5.2-3.5-1.9-0.8-4-1.2-6.1-1.2l-7.5-5.7-13.9 5.7h-3.6c0 0 0 16.5 0 16.5z"/><path fill-rule="evenodd" class="f" d="m163.5 582.4h13.3l6.3-51.4h-19.6v51.4z"/><path class="e" d="m163 596.3h41v-0.5c0-2.1-0.4-4.2-1.2-6.1-0.8-2-2-3.7-3.5-5.2-1.5-1.5-3.2-2.7-5.2-3.5-1.9-0.8-4-1.2-6.1-1.2l-7.5-5.7-13.9 5.7h-3.6c0 0 0 16.5 0 16.5z"/><path class="a" d="m55.2 580.8c-0.5 0.1-1-0.1-1.3-0.3-0.4-0.3-0.7-0.6-0.9-1.1-0.2-0.4-0.2-0.9-0.2-1.3 0.1-0.5 0.4-0.9 0.7-1.2l0.2-0.6q0-0.1-0.1-0.2c-0.4-1.1-1.2-2-2.2-2.7-1-0.6-2.2-1-3.4-1-1.2 0-2.4 0.4-3.4 1-1 0.7-1.8 1.7-2.2 2.8-1.9 4.4-4.2 8.8-4.8 13.5q-0.1 0.8-0.1 1.6 0 0.8 0 1.5 0.1 0.8 0.2 1.6 0.1 0.8 0.2 1.5-1.6-3.5-2.8-7.2-1.2-3.7-2.1-7.4-0.8-3.8-1.2-7.7-0.4-3.8-0.4-7.7 0-1 0-2 0-0.9 0.1-1.9 0-1 0.1-1.9 0.1-1 0.2-2 0.4-3.2 1-6.3 0.9-4.2 2.2-8.3 1.4-4.1 3.2-8.1 1.8-3.9 4.1-7.5 2.3-3.7 5-7.1 1.3-0.7 2.5-1.6 1.2-0.9 2.2-2 1-1 1.9-2.2 0.8-1.3 1.5-2.6 0.2-0.5 0.4-1 0.2-0.5 0.4-1 0.2-0.5 0.3-1 0.1-0.5 0.2-1c-0.4 0-1.5-6-1.2-6.4-0.5-0.8-1.5-1.2-2.1-2-3-4.1-7.1-3.4-9.2 2.1-4.6 2.4-4.6 6.2-1.8 9.9 1.8 2.3 2 5.5 3.6 8q-0.3 0.3-0.5 0.6-1.1 1.4-2.2 2.9-1 1.5-2 3-0.9 1.5-1.8 3.1-0.9 1.6-1.7 3.2 0.2-1.8 0.2-3.6 0-1.8-0.3-3.6-0.2-1.8-0.6-3.6-0.5-1.7-1.1-3.4c-1.8-4.2-5.1-7.8-7.9-11.4-0.8-1-1.8-1.7-3-2.1-1.2-0.4-2.5-0.5-3.7-0.1-1.2 0.3-2.2 1-3 1.9-0.9 1-1.4 2.1-1.5 3.4q0 0 0 0.1 0.6 0.4 1.2 0.8c0.5 0.3 0.9 0.8 1.2 1.4 0.2 0.6 0.2 1.2 0.1 1.8-0.1 0.6-0.4 1.2-0.9 1.6-0.4 0.4-1 0.7-1.6 0.8h-0.1q0.1 0.6 0.1 1.2 0.1 0.5 0.2 1.1 0.1 0.6 0.3 1.1 0.1 0.6 0.2 1.2c-3.7 14.3 4.3 19.5 15.7 19.7q0.4 0.2 0.8 0.4-0.8 2.3-1.5 4.7-0.7 2.3-1.2 4.7-0.5 2.4-0.8 4.8-0.4 2.4-0.6 4.8-0.1 1.5-0.1 2.9-0.1 1.5-0.1 2.9 0 1.4 0.1 2.9 0.1 1.4 0.2 2.9v-0.2q-0.3-1.6-0.9-3.1-0.6-1.5-1.4-2.9-0.8-1.4-1.9-2.6-1-1.2-2.3-2.3c-4.9-4-11.9-5.5-17.2-8.8-0.6-0.3-1.3-0.5-1.9-0.5-0.7 0-1.4 0.2-1.9 0.5-0.6 0.4-1.1 0.9-1.3 1.5-0.3 0.6-0.4 1.3-0.3 2v0.1q0.3 0.1 0.6 0.3 0.3 0.1 0.6 0.2 0.2 0.2 0.5 0.3 0.3 0.2 0.6 0.3 0.6 0.4 1.3 0.8c0.5 0.3 0.9 0.8 1.1 1.4 0.2 0.6 0.3 1.2 0.1 1.8-0.1 0.6-0.4 1.2-0.9 1.6-0.4 0.4-1 0.7-1.6 0.8h-0.1q0 0-0.1 0 0.5 1.2 1.1 2.4 0.6 1.2 1.4 2.3 0.7 1.1 1.5 2.1 0.8 1.1 1.7 2c2.3 12.5 12.2 13.7 22.8 10.1h0.1q0.4 1.9 0.9 3.8 0.6 1.8 1.2 3.7 0.6 1.8 1.4 3.6 0.7 1.9 1.5 3.6h18q0.1-0.3 0.2-0.6-0.6 0.1-1.3 0.1-0.6 0-1.2-0.1-0.6 0-1.2-0.1-0.7-0.1-1.3-0.2 2-2.5 4-4.9 0 0 0 0 0.1-0.1 0.1-0.1 0 0 0 0 0 0 0 0 1-1.3 2-2.5h0.1q0-1-0.1-2 0-0.9-0.1-1.9-0.2-0.9-0.3-1.9-0.2-0.9-0.4-1.9 0 0 0 0z"/><path class="g" d="m256.7 597q0 0.2-0.1 0.4-0.1 0.2-0.2 0.4-0.2 0.2-0.4 0.3-0.2 0.1-0.5 0.1h-253.3c-0.3 0-0.6-0.2-0.8-0.4-0.2-0.2-0.3-0.5-0.3-0.8 0-0.3 0.1-0.6 0.3-0.9 0.2-0.2 0.5-0.3 0.8-0.3h253.3q0.3 0 0.5 0.1 0.2 0.1 0.4 0.2 0.1 0.2 0.2 0.4 0.1 0.2 0.1 0.5z"/><path class="e" d="m56.7 264.6l103.8 5 28 128.5-8 21 11.3 10-11.3 14 2.9 72.6 6.8 17.6-5.2 22.2-23.8-1.2-21.1-112.9 3.3-13-7.8-11.5-9.5-50.6-6.7 49.1 1.2 21.8-6.2 23.2-3.4 99.1-23.5 0.3-5-9.9 5.5-13.4-5.5-9.3c0 0-17.5-82.9-8-100.8l-16.2-89.5 1.9-13.6-6.4-11.1-8.3-45.6c0 0 11.2-2 11.2-2z"/><path class="f" d="m150.6 117.7l-27.1 13.1 5.4 16.4 28.1-14.8c3.7 0.9 7.6-0.4 10-3.3 2.5-2.9 3.1-7 1.6-10.5-1.6-3.5-4.9-5.8-8.7-6-3.9-0.2-7.5 1.7-9.3 5.1z"/><path class="e" d="m67.6 192.4q1.4-0.7 2.6-1.6 1.1-1 2.1-2.1 1-1.1 1.8-2.4 0.8-1.3 1.3-2.7l68.8-34.3-12.7-28.4-61.3 28.4-19.5-56.5-3.7 0.7c-2.3 0.4-4.4 1.3-6.4 2.6-1.9 1.2-3.6 2.8-4.9 4.7-1.3 1.9-2.3 4-2.8 6.2-0.5 2.3-0.6 4.6-0.2 6.9l10.9 66.6c0.4 2.6 1.5 5.1 3 7.2 1.6 2.1 3.6 3.8 6 4.9 2.3 1.2 4.9 1.8 7.5 1.7 2.7 0 5.2-0.7 7.5-1.9z"/><path class="d" d="m104.5 281.7c8.3 8.5 15.9 6.1 22.4 0.6l-13.5-21.2z"/><path fill-rule="evenodd" class="f" d="m93.3 12.7c15.9 0 28.7 12.8 28.7 28.6 0 15.9-12.8 28.7-28.7 28.7-15.9 0-28.7-12.8-28.7-28.7 0-15.8 12.8-28.6 28.7-28.6z"/><path class="e" d="m60.2 53.3q0.4-0.4 0.8-0.7 0.5-0.3 1-0.6 0.4-0.2 1-0.4 0.5-0.2 1-0.3c-1.6 0.8-1.8 2.8-1.7 4.7q0 0.6 0 1.1 0.7 1.1 1.6 2.2 0.8 1 1.7 1.9 1 1 2 1.9 1 0.8 2.1 1.6c0.7 0.5 9.6 3.6 14.3 4-2.4-3.6-5.9-10-8.4-13.6q-0.5-0.7-1-1.4-0.5-0.7-0.9-1.5-0.4-0.7-0.7-1.5-0.4-0.8-0.7-1.6-0.2-0.8-0.3-1.7-0.1-0.8 0-1.7 0.2-0.8 0.5-1.6 0.3-0.8 0.8-1.5c0.7-0.8 1.7-1.5 2.8-1.7 1-0.3 2.2-0.2 3.2 0.2 1 0.4 1.9 1.1 2.5 2 0.6 1 0.9 2 0.8 3.2 1.8-0.8 0.4-3.6 1.7-5.1 2-2.1 2.3-4.1-0.7-5.6-1.7-0.8 2.1-3.1 3.9-3.6q0.7-0.2 1.4-0.3 0.7-0.1 1.4-0.1 0.7 0 1.4 0.1 0.7 0.1 1.4 0.2c5.3 0.8 10.4 2.7 15.8 2.6q0.4 0 0.8-0.1 0.4 0 0.8 0 0.4-0.1 0.8-0.1 0.4-0.1 0.8-0.2-0.4-1.1-0.6-2.2-0.2-1.1-0.2-2.3 0-1.1 0.2-2.3 0.2-1.1 0.6-2.2 0.5 1 1 1.9 0.5 1 1.1 1.9 0.7 0.8 1.4 1.7 0.7 0.8 1.4 1.6 0.9-0.5 1.6-1.1 0.7-0.6 1.3-1.4 0.6-0.7 1-1.6 0.5-0.8 0.7-1.7-0.4-0.2-0.7-0.5-0.5-0.3-0.7-0.9-0.2-0.5-0.1-1.1 0.1-0.6 0.6-1 0.5-0.4 1.1-0.5-0.1-0.5-0.2-1-0.1-0.6-0.3-1.1-0.1-0.5-0.3-1-0.2-0.5-0.5-1-0.2-0.4-0.4-0.8-0.3-0.5-0.5-0.9-0.3-0.4-0.6-0.8-0.3-0.4-0.6-0.8-0.2 0.1-0.5 0.1-0.3 0-0.6 0-0.3 0-0.6 0-0.3 0-0.6-0.1-0.6 0-1-0.4-0.4-0.4-0.5-0.9-0.1-0.6 0.2-1.1 0.2-0.5 0.7-0.7 0.1-0.1 0.2-0.1c-1.5-1.6-3.2-3.3-5.3-4-2-0.7-4.6 0-5.6 1.9-5.1-5.6-14-13.6-18.8-7.5-4.9 6.2-13.9 4.4-19.8 12q0.5 0.3 1 0.6 0.6 0.4 1 0.8 0.5 0.5 0.9 0.9 0.5 0.5 0.9 1-0.7-0.1-1.5-0.2-0.7 0-1.4-0.1-0.7 0-1.4 0.1-0.7 0-1.4 0.1-0.3 0.6-0.5 1.3-0.2 0.6-0.2 1.4 0 0.7 0.1 1.3 0.2 0.7 0.5 1.4c-1.7 1.7-5.2 4.7-2.9 5.1q-1.6 2.9-2.5 6.1-1 3.2-1.1 6.5-0.1 3.3 0.5 6.5 0.6 3.3 2 6.3z"/><path fill-rule="evenodd" class="d" d="m207.5 81.5c4.5 0 8 3.6 8 8 0 4.4-3.5 8-8 8-4.4 0-8-3.6-8-8 0-4.4 3.6-8 8-8z"/></svg>