<svg xmlns="http://www.w3.org/2000/svg" viewBox="0 0 140 38"><defs><style>.cls-1{fill:#2f4576;}</style></defs><title>header-logo</title><g id="Layer_2" data-name="Layer 2"><g id="Vrstva_1" data-name="Vrstva 1"><path class="cls-1" d="M55.78,34a3.25,3.25,0,0,1-1.91-.89,6.61,6.61,0,0,1-1-3.69V0H47.46V30.08c0,5,2.76,7.62,8.21,7.84h.6V34L56,34ZM41.85,34a3.21,3.21,0,0,1-1.89-.9c-.57-.57-1-2.36-1-3.69V0H33.56V30.07c0,5,2.75,7.61,8.18,7.83l.3,0h.3V34l-.25,0Zm95.88-19.62a7.45,7.45,0,0,0-3.72-2.1,8.6,8.6,0,0,0-2.7-.41,9.53,9.53,0,0,0-5.88,2,11.33,11.33,0,0,0-2.06,2,7,7,0,0,0-1.06-1.52,7.43,7.43,0,0,0-3.72-2.1,8.55,8.55,0,0,0-2.7-.41,9.52,9.52,0,0,0-5.87,2,11.12,11.12,0,0,0-1,.88l-.81-2.39-.07-.2h-4.4V37.69h5.45v-.57l0-16.82a5.34,5.34,0,0,1,2.12-2.52,6.21,6.21,0,0,1,3.59-1.12c2.86,0,4.22,1.51,4.3,4.74V37.69h5.46V21.23a2.56,2.56,0,0,0,0-.26l0-.65a5.34,5.34,0,0,1,2.13-2.54,6.18,6.18,0,0,1,3.58-1.12c2.95,0,4.32,1.6,4.32,5v16H140V21.23A9.76,9.76,0,0,0,137.73,14.35ZM90.65,12.42l0,17.11a5.38,5.38,0,0,1-2.12,2.52A6.21,6.21,0,0,1,85,33.17c-2.95,0-4.32-1.6-4.32-5v-16H75.22V28.6a9.74,9.74,0,0,0,2.28,6.88,7.43,7.43,0,0,0,3.72,2.1,8.56,8.56,0,0,0,2.7.41,9.59,9.59,0,0,0,5.89-2c.15-.12.29-.24.42-.36l.19-.16.09-.09.32-.3.81,2.4.07.19h4.4V12.14H90.65ZM20.51,15.14a14.23,14.23,0,0,0-1.32-1,11.59,11.59,0,0,0-6.57-2,12,12,0,0,0-2.76.32A12.89,12.89,0,0,0,0,24.91,13.11,13.11,0,0,0,9.82,37.58a10.75,10.75,0,0,0,2.87.35,13,13,0,0,0,7.94-3l.85,2.54.07.2h4.4V12.14H20.51ZM12.85,32.71a7.74,7.74,0,0,1-7.46-7.8,7.67,7.67,0,0,1,15.33,0A7.47,7.47,0,0,1,12.85,32.71ZM66.79,5.15V4.86H61.34v7.28L66.78,9ZM69.64,34a3.28,3.28,0,0,1-1.91-.89,6.63,6.63,0,0,1-1-3.69V12.14l-5.44,3.13V30.08c0,5,2.76,7.62,8.2,7.84l.59,0V34l-.24,0Z"/></g></g></svg>